<?xml version="1.0" encoding="utf-8"?>
<!-- Generator: Adobe Illustrator 16.0.0, SVG Export Plug-In . SVG Version: 6.00 Build 0)  -->
<!DOCTYPE svg PUBLIC "-//W3C//DTD SVG 1.1//EN" "http://www.w3.org/Graphics/SVG/1.1/DTD/svg11.dtd">
<svg version="1.1" id="圖層_1" xmlns="http://www.w3.org/2000/svg" xmlns:xlink="http://www.w3.org/1999/xlink" x="0px" y="0px"
	 width="1440px" height="900px" viewBox="0 0 1440 900" enable-background="new 0 0 1440 900" xml:space="preserve">
<path fill-rule="evenodd" clip-rule="evenodd" fill="#FFD900" d="M0-4v908h1440V-4H0z M817.311,515.019
	c-30.172,20.187-62.204,30.421-95.209,30.421c-21.167,0-43.012-4.228-64.928-12.567c-54.498-20.737-90.743-60.62-107.731-118.543
	c-8.354-28.479-6.748-57.82-4.415-80.199c6.309-60.534,20.205-119.474,31.605-164.06c6.944-27.156,14.775-54.654,22.349-81.247
	c3.8-13.346,7.721-27.115,11.508-40.758c38.217,0.089,75.693,0.101,107.442,0.101l77.418-0.01c3.57,0,7.064,0.012,10.56,0.025
	c3.522,0.012,7.046,0.025,10.567,0.025c4.936,0,9.159-0.025,13.035-0.08c3.286,11.725,6.725,23.521,10.059,34.962
	c6.725,23.075,13.679,46.936,19.476,70.53c10.171,41.398,19.724,85.029,29.204,133.386c3.334,16.999,5.268,34.334,6.976,49.63
	c0.668,5.992,1.301,11.669,1.968,16.853C897.197,427.213,871.802,478.558,817.311,515.019z"/>
<g>
	<path fill-rule="evenodd" clip-rule="evenodd" fill="#FFFFFF" d="M744.868,591.342c0,3.062,0,5.782,0,8.503
		c0.001,91.594,0.515,3.569-0.354,95.155c-0.222,23.42,8.94,40.995,24.91,56.057c32.911,31.038,72.188,50.293,115.889,60.951
		c3.227,0.787,6.574,1.133,9.885,1.501c10.21,1.137,15.919,7.478,15.318,17.138c-0.585,9.432-6.575,14.693-17.028,14.701
		c-50.126,0.037-100.253,0.031-150.379,0.029c-65.634-0.002-131.27,0.01-196.904-0.046c-12.268-0.011-19.533-9.512-16.003-20.779
		c2.021-6.446,6.619-9.967,13.269-10.908c38.603-5.461,72.652-21.871,104.369-43.71c14.148-9.74,26.93-21.038,36.769-35.314
		c6.834-9.916,10.781-20.601,10.758-32.975c-0.173-94.552-0.093-9.479-0.093-104.03c0-1.935,0-3.868,0-5.898
		c-9.015-1.895-17.673-3.4-26.166-5.552c-50.443-12.783-91.381-39.886-121.935-82.12c-31.104-42.997-41.785-91.366-37.427-143.76
		c4.75-57.103,16.209-113.007,29.282-168.632c11.848-50.409,25.317-100.372,42.022-149.422c5.157-15.143,5.114-15.153,21.273-15.154
		c81.569-0.001,163.138,0.046,244.706-0.137c4.77-0.01,7.073,1.36,8.421,5.807c10.288,33.946,21.218,67.707,30.966,101.806
		c13.92,48.694,24.776,98.146,33.597,148.007c6.022,34.04,11.506,68.238,11.16,102.947c-0.586,58.985-22.528,109.037-65.413,149.388
		C833.92,564.851,795.752,583.877,744.868,591.342z M908.988,352.718c-2.379-18.223-4.339-43.384-9.162-67.983
		c-8.792-44.841-18.424-89.56-29.326-133.931c-9.021-36.722-20.458-72.849-30.592-109.304c-1.215-4.373-3.351-5.296-7.45-5.219
		c-12.366,0.233-24.737,0.079-37.108,0.079c-62.516,0.001-125.033,0.054-187.551-0.098c-4.471-0.011-6.613,1.19-7.833,5.604
		c-11.544,41.773-24.028,83.304-34.762,125.281c-13.954,54.574-26.055,109.597-31.909,165.759
		c-2.967,28.476-3.36,56.824,4.829,84.742c17.822,60.765,55.96,103.838,114.855,126.249
		c59.516,22.646,117.622,16.564,170.891-19.076C882.342,485.698,909.17,429.42,908.988,352.718z"/>
	<path fill-rule="evenodd" clip-rule="evenodd" fill="#FFD900" d="M899.826,284.735c-8.792-44.841-18.424-89.56-29.326-133.931
		c-9.021-36.722-20.458-72.849-30.592-109.304c-1.215-4.373-3.351-5.296-7.45-5.219c-12.366,0.233-24.737,0.079-37.108,0.079
		c-62.516,0.001-125.033,0.054-187.551-0.098c-4.471-0.011-6.613,1.19-7.833,5.604c-11.544,41.773-24.028,83.304-34.762,125.281
		c-13.954,54.574-26.055,109.597-31.909,165.759c-2.967,28.476-3.36,56.824,4.829,84.742
		c17.822,60.765,55.96,103.838,114.855,126.249c59.516,22.646,117.622,16.564,170.891-19.076
		c58.473-39.123,85.301-95.401,85.119-172.104C906.609,334.495,904.649,309.334,899.826,284.735z M817.311,515.019
		c-30.172,20.187-62.204,30.421-95.209,30.421c-21.167,0-43.012-4.228-64.928-12.567c-54.498-20.737-90.743-60.62-107.731-118.543
		c-8.354-28.479-6.748-57.82-4.415-80.199c6.309-60.534,20.205-119.474,31.605-164.06c6.944-27.156,14.775-54.654,22.349-81.247
		c3.8-13.346,7.721-27.115,11.508-40.758c38.217,0.089,75.693,0.101,107.442,0.101l77.418-0.01c3.57,0,7.064,0.012,10.56,0.025
		c3.522,0.012,7.046,0.025,10.567,0.025c4.936,0,9.159-0.025,13.035-0.08c3.286,11.725,6.725,23.521,10.059,34.962
		c6.725,23.075,13.679,46.936,19.476,70.53c10.171,41.398,19.724,85.029,29.204,133.386c3.334,16.999,5.268,34.334,6.976,49.63
		c0.668,5.992,1.301,11.669,1.968,16.853C897.197,427.213,871.802,478.558,817.311,515.019z"/>
</g>
</svg>
